<svg xmlns="http://www.w3.org/2000/svg" viewBox="0 0 67.4 11.4" enable-background="new 0 0 67.4 11.4"><style type="text/css">.st0{fill:#FC7200;} .st1{fill:#B39D98;} .st2{fill:#FE8B00;}</style><path d="M1.8 6.9c.4-.4 2.5-1.7 3-1.3s-.8 2.5-1.3 3c-.4.4-1.2.4-1.6-.1s-.5-1.2-.1-1.6z" class="st0"/><path d="M2.6 5.8c.1-.1.2-.1.3-.2-.2-.2-.6-.9-.3-1.2.3-.3 1.1 0 1.7.6.3-1.7-1.2-4-2.7-3.1-1.4.8-.2 3.2 1 3.9z" class="st1"/><path d="M11.7 3.9c-.4.4-2.5 1.7-3 1.3-.5-.5.8-2.5 1.3-3 .4-.4 1.2-.4 1.6 0s.6 1.3.1 1.7z" class="st0"/><path d="M10.9 4.9c-.1.1-.2.1-.3.2.3.3.6.9.3 1.2-.3.3-1.1 0-1.7-.6-.3 1.7 1.2 4.1 2.8 3.2 1.4-.9.2-3.3-1.1-4z" class="st1"/><path d="M7.6 9.6c0-.1 0-.1 0 0-.5-.7-1-1.9-1-4.2 0-2.1-.5-3.4-1-4.2-1.2-1.8-4.1.5-4 .5C3.3.7 5 3.3 4.7 5.2c.2 0 .3 0 .4.1.6.6-1 3.1-1.4 3.5-.3.2-.7.4-1 .4-.3 0-.6-.1-.8-.2.4.4 1 .9 2.1 1.2 1.7.3 3.2-.4 3.6-.6 0-.1 0-.1 0 0 .1 0 .1 0 0 0 .1 0 .1 0 0 0zM5.9 1.2c.5.7 1 2 1 4.2 0 2.3.5 3.5 1 4.2 1.3 1.7 4.1-.5 4.1-.5-1.7 1-3.4-1.6-3.1-3.5-.2 0-.3 0-.4-.1-.6-.7 1-3.1 1.4-3.5.3-.3.6-.4.9-.4.3 0 .6.1.8.2-.4-.4-1-.9-2.1-1.2-1.7-.4-3.1.4-3.6.6zM15.1 1.9h.9v2.8h3V1.9h.9v6.6H19V5.4h-3v3.1h-.9V1.9zM22 6.2c0 .9.4 1.6 1.2 1.6.7 0 1-.5 1.1-.8h.9c-.2.7-.7 1.5-2 1.5-1.5 0-2.1-1.2-2.1-2.6 0-1.2.6-2.5 2.1-2.5 1.6 0 2 1.2 2 2.4 0 0 0 .3 0 .4H22zm2.3-.6c0-.8-.3-1.4-1.2-1.4-.9 0-1.1.8-1.2 1.4h2.4zM26.2 1.5h.9v1.1h-.9V1.5zm0 2.1h.9v4.9h-.9V3.6zM28.5 5.1c0-1 0-1.3 0-1.5h.9c0 .1 0 .5 0 .7.2-.4.6-.8 1.4-.8.9 0 1.6.5 1.6 1.8v3.2h-.9v-3c0-.7-.2-1.2-.9-1.2-.8 0-1.2.6-1.2 1.6v2.6h-.9V5.1zM37.7 8.1c0 1.5-.6 2.4-2.1 2.4s-1.9-.8-2-1.5h.9c.1.5.5.8 1.1.8 1 0 1.2-.6 1.2-1.7v-.4c-.3.5-.7.8-1.4.8-1.2 0-1.9-1-1.9-2.5 0-1.6.9-2.5 2-2.5.8 0 1.2.3 1.3.7 0-.2 0-.5 0-.6h.9c0 .2 0 .8 0 1.4v3.1zM34.4 6c0 1.1.5 1.7 1.2 1.7.9 0 1.2-.6 1.2-1.7 0-1.2-.2-1.7-1.2-1.7-.7 0-1.2.6-1.2 1.7zM39 5.3c0-.8 0-1.4 0-1.7h.9c0 .2 0 .5 0 1 .2-.6.7-1 1.6-1.1v.9c-1.1 0-1.6.6-1.6 1.7v2.4H39V5.3zM42.3 1.5h.9v1.1h-.9V1.5zm0 2.1h.9v4.9h-.9V3.6zM48.4 1.5v5.7c0 .5 0 1 0 1.3h-.9c0-.1 0-.4 0-.7-.3.5-.6.8-1.4.8-1.3 0-1.9-1.1-1.9-2.5s.7-2.6 2.1-2.6c.8 0 1.1.3 1.3.6V1.5h.8zM45.1 6c0 1.1.5 1.8 1.2 1.8 1 0 1.2-.8 1.2-1.9 0-1.3-.4-1.7-1.2-1.7-.7.1-1.2.7-1.2 1.8z" class="st2"/><path d="M50.2 4.8h1.3c.7 0 1.2.4 1.2 1 0 .7-.5 1.1-1.3 1.1h-.7v1.6h-.5V4.8zm.5 1.7h.7c.5 0 .8-.2.8-.7 0-.4-.3-.6-.8-.6h-.7v1.3zM53.7 4.6v1.6c.1-.3.4-.4.8-.4s.9.2.9 1v1.8h-.5V6.8c0-.4-.2-.6-.5-.6-.4 0-.6.3-.6.8v1.5h-.5V4.6h.4zM58.1 7.9c0 .2 0 .5 0 .6h-.4c0-.1 0-.2 0-.4-.1.3-.4.5-.8.5-.7 0-.9-.4-.9-.8s.3-.9 1.2-.9c.1 0 .3 0 .4 0v-.3c0-.3-.1-.5-.5-.5s-.5.2-.5.5H56c0-.5.3-.8 1-.8.6 0 1 .2 1 .9v1.2zm-.5-.7c-.1 0-.3 0-.4 0-.6 0-.7.3-.7.5s.2.5.5.5c.4 0 .6-.4.6-1zM58.8 6.7c0-.4 0-.8 0-.9h.5c0 .1 0 .3 0 .5.1-.3.4-.6.9-.6v.5c-.6 0-.9.3-.9.9v1.3h-.5V6.7zM60.6 6.6c0-.5 0-.7 0-.8h.5c0 .1 0 .3 0 .4.1-.2.4-.4.8-.4s.6.2.7.5c.1-.3.4-.6.8-.6s.8.2.8.9v1.8h-.5V6.8c0-.3-.1-.6-.5-.6s-.6.3-.6.8v1.6h-.5V6.7c0-.3-.1-.6-.5-.6s-.6.3-.6.8v1.5h-.5V6.6zM66.9 7.9c0 .2 0 .5 0 .6h-.4c0-.1 0-.2 0-.4-.1.3-.4.5-.8.5-.7 0-.9-.4-.9-.8s.3-.9 1.2-.9c.1 0 .3 0 .4 0v-.3c0-.3-.1-.5-.5-.5s-.5.2-.5.5h-.5c0-.5.3-.8 1-.8.6 0 1 .2 1 .9v1.2zm-.4-.7c-.1 0-.3 0-.4 0-.6 0-.7.3-.7.5s.2.5.5.5c.4 0 .6-.4.6-1z" class="st1"/></svg>