<svg xmlns="http://www.w3.org/2000/svg" width="117.19" height="211.46"><style type="text/css">.st0{fill:none;stroke:#FFFFFF;stroke-width:2;stroke-miterlimit:10;}</style><path d="M68.33 1s-7.37 19.52-12.9 31.3C28.9 88.93 13.6 82.04 17.5 98.63c1.47 6.26 6.26 7.37 8.1 7.37s8.84-1.5 12.16 6.25c6.07 14.16 34.2 1.32 16.94-22.84 0 0-2.95-8.46.74-17.3S82.7 6.9 88.6 1H68.32zM83.84 210.22s-36.47-71.1-46.4-61.15c0 0-5.54 5.52-11.07-5.53-5.52-11.05 1.1-22.47 6.27-20.26s11.42 6.63 20.26 2.2c8.84-4.4 11.05-8.83 16.94-5.52 5.9 3.32 5.9 9.2 4.05 14.37-1.85 5.16-5.53 8.1-1.48 16.58 4.05 8.48 15.84 33.9 30.58 52.32l-19.16 7zM8.9 98.03s0 10.68 8.85 16.58c8.84 5.9 3.32 9.58 1.85 9.58-1.48 0-12.16 2.58-16.58-10.3s-.37-18.8.74-22.48 6.63-1.48 5.15 6.63zM86.08 134.62c-2.7 9.9-7.68 7.13 1.04 21.4 3.8 6.2 15.86 33.1 24.48 43.44l4.14-1.38S87.46 146 91.26 142.2c3.8-3.78-2.07-9.3-5.18-7.58z" class="st0"/></svg>