<svg xmlns="http://www.w3.org/2000/svg" viewBox="0 0 48.48 48.48"><defs><style>.cls-1{fill:url(#linear-gradient);}.cls-2{fill:#757678;}</style><linearGradient id="linear-gradient" x1="-1312.28" x2="-1393.04" y1="955.84" y2="874.54" gradientUnits="userSpaceOnUse"><stop offset="0" stop-color="#444344"/><stop offset="1" stop-color="#b7b9be"/></linearGradient></defs><g id="_Group_"><path id="_Compound_Path_" d="M0 14.17V34.3a14.18 14.18 0 0 0 14.18 14.18H34.3A14.18 14.18 0 0 0 48.5 34.3V14.17A14.18 14.18 0 0 0 34.3 0H14.2A14.18 14.18 0 0 0 0 14.16zm24.23 24.2A14.18 14.18 0 0 1 10.05 24.2a14.18 14.18 0 0 1 14.18-14.14A14.18 14.18 0 0 1 38.4 24.24a14.18 14.18 0 0 1-14.17 14.14z" class="cls-1"/><path id="_Group_2" d="M30.02 31.85h-2.58v-6.7h-6.57v6.7h-2.53V17.28h2.56v5.76h6.57v-5.76h2.58z" class="cls-2"/></g></svg>