<svg xmlns="http://www.w3.org/2000/svg" width="132.508" height="192.892"><style type="text/css">.st0{fill:none;stroke:#FFFFFF;stroke-width:2;stroke-miterlimit:10;}</style><path d="M62.2 107.37s-14.55 6.56-16.77.62c-1.54-4.12 22.48-14.68 27.65-5.07M64.77 88.88s-7.52 8.92-16.32 3.1-7.98-16.85-4.76-23.32c3.2-6.48 5.34-.58 4.5 3.53-.83 4.1 2.2 11.37 10.17 6.1 7.96-5.27 13.37-10.82 20.47-3.67s7.73 23.92 4.2 32-13.18 15.6-13.18 15.6" class="st0"/><ellipse cx="59.295" cy="126.863" transform="matrix(.2 -.98 .98 .2 -76.848 159.655)" class="st0" rx="11.995" ry="11.995"/><path d="M43.7.95s-16.87 5.8-16.87 19.1 11.63 16.6 29.34 16.6M118.7.67S101 78.15 122.6 123.54s-2.77 68.63-2.77 68.63M72.22 168.92S15.76 164.5 3.02 118 41.5 35.47 41.5 35.47" class="st0"/><path d="M36.8 59.9S8.02 82.02 23.5 120.76s50.93 26.57 50.93 26.57 26-9.4 26-45.4S81.08 30 36.8 59.9z" class="st0"/></svg>