<svg xmlns="http://www.w3.org/2000/svg" viewBox="0 0 48.48 48.48"><defs><style>.cls-1{fill:url(#linear-gradient);}.cls-2{fill:#5b9476;}</style><linearGradient id="linear-gradient" x1="-1240.62" x2="-1187.55" y1="888.85" y2="954.79" gradientUnits="userSpaceOnUse"><stop offset="0" stop-color="#cec72b"/><stop offset="1" stop-color="#04658a"/></linearGradient></defs><g id="_Group_"><path id="_Compound_Path_" d="M0 14.13v20.13a14.18 14.18 0 0 0 14.18 14.18H34.3a14.18 14.18 0 0 0 14.2-14.18V14.13A14.18 14.18 0 0 0 34.3-.05H14.2A14.18 14.18 0 0 0 0 14.13zm24.24 24.24A14.18 14.18 0 0 1 10.06 24.2 14.18 14.18 0 0 1 24.24 10a14.18 14.18 0 0 1 14.18 14.2A14.18 14.18 0 0 1 24.24 38.4z" class="cls-1"/><path id="_Group_2" d="M29.6 19.4h-6.82v3.63h5.1v2.1h-5.1v6.7h-2.53V17.24h9.37z" class="cls-2"/></g></svg>