<svg xmlns="http://www.w3.org/2000/svg" viewBox="0 0 48.48 48.48"><defs><style>.cls-1{fill:url(#linear-gradient);}.cls-2{fill:#521948;}</style><linearGradient id="linear-gradient" x1="-1365.68" x2="-1329.94" y1="811.39" y2="899.66" gradientUnits="userSpaceOnUse"><stop offset="0" stop-color="#551d4b"/><stop offset="1" stop-color="#3f0f37"/></linearGradient></defs><g id="_Group_"><path id="_Compound_Path_" d="M0 14.17V34.3a14.18 14.18 0 0 0 14.18 14.18H34.3A14.18 14.18 0 0 0 48.5 34.3V14.17A14.18 14.18 0 0 0 34.3 0H14.2A14.18 14.18 0 0 0 0 14.16zM24.24 38.4a14.18 14.18 0 0 1-14.18-14.17 14.18 14.18 0 0 1 14.17-14.18A14.18 14.18 0 0 1 38.4 24.23 14.18 14.18 0 0 1 24.24 38.4z" class="cls-1"/><path id="_Group_2" d="M28.76 21.12a3.37 3.37 0 0 1-.4 1.78 3.33 3.33 0 0 1-1 1 4.63 4.63 0 0 1 .8.48 3.22 3.22 0 0 1 .68.7 3.52 3.52 0 0 1 .48 1 4.3 4.3 0 0 1 .18 1.3 4.2 4.2 0 0 1-.53 2.23 3.9 3.9 0 0 1-1.35 1.36 5.58 5.58 0 0 1-1.8.68 9.7 9.7 0 0 1-1.86.2h-4.44V17.25h4.28a8.3 8.3 0 0 1 1.9.2 5 5 0 0 1 1.6.68 3.3 3.3 0 0 1 1.1 1.2 3.63 3.63 0 0 1 .36 1.78zm-6.7 1.9h1.47a4.8 4.8 0 0 0 1-.1 2.62 2.62 0 0 0 .85-.33 1.75 1.75 0 0 0 .57-.6 1.7 1.7 0 0 0 .2-.88 1.5 1.5 0 0 0-.22-.86 1.65 1.65 0 0 0-.57-.53 2.43 2.43 0 0 0-.8-.26 5.43 5.43 0 0 0-.86-.07H22zm1.73 6.7q3.12 0 3.12-2.4a1.9 1.9 0 0 0-.24-1 2.2 2.2 0 0 0-.6-.68 2.4 2.4 0 0 0-.8-.38 3.2 3.2 0 0 0-.82-.12h-2.4v4.56z" class="cls-2"/></g></svg>