<svg xmlns="http://www.w3.org/2000/svg" viewBox="0 0 48.48 48.48"><defs><style>.cls-1{fill:url(#linear-gradient);}.cls-2{fill:#664187;}</style><linearGradient id="linear-gradient" x1="-1117.04" x2="-1057.18" y1="815.29" y2="875.15" gradientUnits="userSpaceOnUse"><stop offset="0" stop-color="#7f509b"/><stop offset="1" stop-color="#402767"/></linearGradient></defs><g id="_Group_"><path id="_Compound_Path_" d="M0 14.17V34.3a14.18 14.18 0 0 0 14.2 14.18h20.14A14.18 14.18 0 0 0 48.52 34.3V14.17A14.18 14.18 0 0 0 34.34 0H14.2A14.18 14.18 0 0 0 0 14.16zM24.24 38.4a14.18 14.18 0 0 1-14.18-14.17A14.18 14.18 0 0 1 24.2 10.06a14.18 14.18 0 0 1 14.2 14.18 14.18 14.18 0 0 1-14.2 14.18z" class="cls-1"/><path id="_Group_2" d="M28.68 31.88l-1.7-3.94h-5.35q-.4.93-.85 2t-.82 1.95h-2.68l7-16.1 7.07 16.1zm-2.56-6.07l-.47-1.12-.4-1-.4-1q-.24-.55-.55-1.36-.43 1.08-.88 2.16t-.93 2.33z" class="cls-2"/></g></svg>