<svg xmlns="http://www.w3.org/2000/svg" viewBox="0 0 48.48 48.48"><defs><style>.cls-1{fill:url(#linear-gradient);}.cls-2{fill:#ed6524;}</style><linearGradient id="linear-gradient" x1="-1435.28" x2="-1516.04" y1="488.69" y2="407.39" gradientUnits="userSpaceOnUse"><stop offset="0" stop-color="#ef4d24"/><stop offset="1" stop-color="#f27921"/></linearGradient></defs><g id="_Group_"><path id="_Compound_Path_" d="M0 14.18V34.3a14.18 14.18 0 0 0 14.17 14.23H34.3a14.18 14.18 0 0 0 14.18-14.18V14.18A14.18 14.18 0 0 0 34.3 0H14.17A14.18 14.18 0 0 0 0 14.18zm24.24 24.24a14.18 14.18 0 0 1-14.18-14.18 14.18 14.18 0 0 1 14.17-14.18A14.18 14.18 0 0 1 38.4 24.24a14.18 14.18 0 0 1-14.17 14.18z" class="cls-1"/><path id="_Group_2" d="M28.7 18.45a4 4 0 0 1 1.12 1.48 4.66 4.66 0 0 1 .37 1.86 3.5 3.5 0 0 1-.5 1.9 5.06 5.06 0 0 1-1.23 1.4 5.24 5.24 0 0 1-.5.36 3.44 3.44 0 0 1-.8.32 8 8 0 0 1-1.15.24 11.66 11.66 0 0 1-1.6.1h-1.66v5.73h-2.53V17.28h4.32a8.6 8.6 0 0 1 2.45.3 5.1 5.1 0 0 1 1.73.87zm-1.76 5a2 2 0 0 0 .72-1.58 2.52 2.52 0 0 0-.6-1.77 3.27 3.27 0 0 0-1-.48 5.46 5.46 0 0 0-1.52-.2H22.8V24h2.44a3.3 3.3 0 0 0 .9-.14 2.58 2.58 0 0 0 .8-.44z" class="cls-2"/></g></svg>