<svg xmlns="http://www.w3.org/2000/svg" viewBox="0 0 48.48 48.48"><defs><style>.cls-1{fill:url(#radial-gradient);}.cls-2{fill:#688ec3;}</style><radialGradient id="radial-gradient" cx="-1227.07" cy="417.13" r="27.25" gradientUnits="userSpaceOnUse"><stop offset="0" stop-color="#6b93c6"/><stop offset="1" stop-color="#698bc1"/></radialGradient></defs><g id="_Group_"><path id="_Compound_Path_" d="M0 14.18V34.3a14.18 14.18 0 0 0 14.18 14.2H34.3a14.18 14.18 0 0 0 14.2-14.2V14.2A14.18 14.18 0 0 0 34.3 0H14.2A14.18 14.18 0 0 0 0 14.18zm24.24 24.24a14.18 14.18 0 0 1-14.18-14.18 14.18 14.18 0 0 1 14.18-14.18 14.18 14.18 0 0 1 14.18 14.18 14.18 14.18 0 0 1-14.18 14.18z" class="cls-1"/><path id="_Group_2" d="M24 32.12a8.1 8.1 0 0 1-3.14-.58 7 7 0 0 1-2.4-1.64 7.45 7.45 0 0 1-1.65-2.42 7.73 7.73 0 0 1-.58-2.88 7.35 7.35 0 0 1 .57-2.9 7.63 7.63 0 0 1 1.64-2.42 7 7 0 0 1 2.4-1.64 8.1 8.1 0 0 1 3.14-.58 8 8 0 0 1 3.12.58 7.3 7.3 0 0 1 2.42 1.64 8.42 8.42 0 0 1 1.62 2.42 7.1 7.1 0 0 1 .6 2.9 7.24 7.24 0 0 1-.6 2.9 7.87 7.87 0 0 1-1.6 2.4 7.26 7.26 0 0 1-2.44 1.64 8.1 8.1 0 0 1-3.1.58zm-5.2-7.53a5.73 5.73 0 0 0 .4 2.1 5.18 5.18 0 0 0 1.07 1.7 5.18 5.18 0 0 0 1.65 1.16A5 5 0 0 0 24 30a5 5 0 0 0 2.08-.44 5.2 5.2 0 0 0 1.65-1.16 5.2 5.2 0 0 0 1.07-1.7 5.73 5.73 0 0 0 .38-2.1 5.82 5.82 0 0 0-.38-2.12 5.17 5.17 0 0 0-1.07-1.72 5.2 5.2 0 0 0-1.65-1.16 5 5 0 0 0-2.08-.43 5 5 0 0 0-2.08.43 5.18 5.18 0 0 0-1.65 1.16 5.17 5.17 0 0 0-1.08 1.72 5.82 5.82 0 0 0-.4 2.1z" class="cls-2"/></g></svg>