<svg xmlns="http://www.w3.org/2000/svg" viewBox="0 0 48.48 48.48"><defs><style>.cls-1{fill:url(#linear-gradient);}.cls-2{fill:#811640;}</style><linearGradient id="linear-gradient" x1="-1249.55" x2="-1189.69" y1="675.36" y2="735.22" gradientUnits="userSpaceOnUse"><stop offset="0" stop-color="#a41f51"/><stop offset="1" stop-color="#5d0a2c"/></linearGradient></defs><g id="_Group_"><path id="_Compound_Path_" d="M0 14.18V34.3a14.18 14.18 0 0 0 14.18 14.2H34.3a14.18 14.18 0 0 0 14.2-14.2V14.2A14.18 14.18 0 0 0 34.3 0H14.2A14.18 14.18 0 0 0 0 14.18zm24.24 24.24a14.18 14.18 0 0 1-14.18-14.18 14.18 14.18 0 0 1 14.18-14.18 14.18 14.18 0 0 1 14.18 14.18 14.18 14.18 0 0 1-14.18 14.18z" class="cls-1"/><path id="_Group_2" d="M31.3 29.3a10.48 10.48 0 0 1-2.88 2.05 7.54 7.54 0 0 1-3.3.76 9 9 0 0 1-3.1-.6 7.2 7.2 0 0 1-2.45-1.6A7.63 7.63 0 0 1 18 27.44a7.6 7.6 0 0 1-.56-2.87 7.26 7.26 0 0 1 .54-2.92 7.8 7.8 0 0 1 1.6-2.44 7.15 7.15 0 0 1 2.4-1.6 8.17 8.17 0 0 1 3.15-.6 7.48 7.48 0 0 1 3.28.76 10.4 10.4 0 0 1 2.87 2l-1.6 1.72a10.18 10.18 0 0 0-2.28-1.76 4.7 4.7 0 0 0-2.27-.63 5 5 0 0 0-2.08.44 5.2 5.2 0 0 0-1.65 1.16 5.17 5.17 0 0 0-1.08 1.72 5.83 5.83 0 0 0-.38 2.12 5.73 5.73 0 0 0 .38 2.1 5.2 5.2 0 0 0 1.08 1.7 5.17 5.17 0 0 0 1.65 1.17 5 5 0 0 0 2.08.44 4.65 4.65 0 0 0 2.25-.65 10.15 10.15 0 0 0 2.27-1.75z" class="cls-2"/></g></svg>