<svg xmlns="http://www.w3.org/2000/svg" viewBox="0 0 48.48 48.48"><defs><style>.cls-1{fill:url(#linear-gradient);}.cls-2{fill:#e53947;}</style><linearGradient id="linear-gradient" x1="-1053.12" x2="-1109.18" y1="529.52" y2="473.46" gradientUnits="userSpaceOnUse"><stop offset="0" stop-color="#da2f30"/><stop offset="1" stop-color="#ee3e53"/></linearGradient></defs><g id="_Group_"><path id="_Compound_Path_" d="M0 14.18V34.3A14.18 14.18 0 0 0 14.2 48.5h20.14A14.18 14.18 0 0 0 48.52 34.3V14.18A14.18 14.18 0 0 0 34.34 0H14.2A14.18 14.18 0 0 0 0 14.18zm24.24 24.24a14.18 14.18 0 0 1-14.18-14.18A14.18 14.18 0 0 1 24.2 10.06a14.18 14.18 0 0 1 14.2 14.18 14.18 14.18 0 0 1-14.2 14.18z" class="cls-1"/><path id="_Group_2" d="M30.15 17.28v9.8a5.8 5.8 0 0 1-.4 2.22 4.07 4.07 0 0 1-1.1 1.58 4.83 4.83 0 0 1-1.75.93 7.7 7.7 0 0 1-2.26.32 7.85 7.85 0 0 1-2.26-.3 5 5 0 0 1-1.8-.94 4.4 4.4 0 0 1-1.2-1.58 5.24 5.24 0 0 1-.43-2.22v-9.8h2.6v9.9a2.68 2.68 0 0 0 .26 1.2 2.72 2.72 0 0 0 .7.9 3 3 0 0 0 1 .53 3.7 3.7 0 0 0 1.15.2 3.78 3.78 0 0 0 1.13-.18 2.6 2.6 0 0 0 .93-.5 2.28 2.28 0 0 0 .63-.87 3.27 3.27 0 0 0 .23-1.28v-9.9z" class="cls-2"/></g></svg>