<svg xmlns="http://www.w3.org/2000/svg" viewBox="0 0 48.48 48.48"><defs><style>.cls-1{fill:url(#linear-gradient);}.cls-2{fill:#a73178;}</style><linearGradient id="linear-gradient" x1="-1250.61" x2="-1194.34" y1="743.89" y2="800.16" gradientUnits="userSpaceOnUse"><stop offset="0" stop-color="#ee5998"/><stop offset="1" stop-color="#812265"/></linearGradient></defs><g id="_Group_"><path id="_Compound_Path_" d="M0 14.22v20.13a14.18 14.18 0 0 0 14.18 14.18H34.3a14.18 14.18 0 0 0 14.2-14.18V14.22A14.18 14.18 0 0 0 34.3.04H14.2A14.18 14.18 0 0 0 0 14.22zm24.24 24.24a14.18 14.18 0 0 1-14.18-14.24 14.18 14.18 0 0 1 14.18-14.18 14.18 14.18 0 0 1 14.18 14.18 14.18 14.18 0 0 1-14.18 14.2z" class="cls-1"/><path id="_Group_2" d="M24.4 32.1a8.1 8.1 0 0 1-3.13-.57 7 7 0 0 1-2.4-1.64 7.46 7.46 0 0 1-1.65-2.43 7.73 7.73 0 0 1-.6-2.88 7.35 7.35 0 0 1 .58-2.9 7.63 7.63 0 0 1 1.65-2.43 7 7 0 0 1 2.4-1.64 8.08 8.08 0 0 1 3.14-.58 8 8 0 0 1 3.1.58 7.3 7.3 0 0 1 2.43 1.64 8.42 8.42 0 0 1 1.62 2.42 7.1 7.1 0 0 1 .6 2.9 7.24 7.24 0 0 1-.6 2.88 7.88 7.88 0 0 1-1.6 2.4 7.26 7.26 0 0 1-2.44 1.65 8.1 8.1 0 0 1-3.1.58zm-5.18-7.52a5.73 5.73 0 0 0 .38 2.1 5.2 5.2 0 0 0 1.08 1.7 5.18 5.18 0 0 0 1.65 1.17 5 5 0 0 0 2.08.43 5 5 0 0 0 2.1-.43 5.2 5.2 0 0 0 1.64-1.16 5.2 5.2 0 0 0 1.07-1.72 5.73 5.73 0 0 0 .4-2.1 5.83 5.83 0 0 0-.4-2.12 5.18 5.18 0 0 0-1.06-1.72 5.2 5.2 0 0 0-1.65-1.16 5 5 0 0 0-2.1-.43 5 5 0 0 0-2.07.43 5.2 5.2 0 0 0-1.65 1.16 5.17 5.17 0 0 0-1.08 1.72 5.83 5.83 0 0 0-.4 2.13z" class="cls-2"/></g></svg>