<svg xmlns="http://www.w3.org/2000/svg" viewBox="0 0 48.48 48.48"><defs><style>.cls-1{fill:url(#linear-gradient);}.cls-2{fill:#a67caa;}</style><linearGradient id="linear-gradient" x1="-1120.89" x2="-1058.12" y1="880.94" y2="943.71" gradientUnits="userSpaceOnUse"><stop offset="0" stop-color="#cb9ec8"/><stop offset="1" stop-color="#875e91"/></linearGradient></defs><path id="_Compound_Path_" d="M0 14.18V34.3a14.18 14.18 0 0 0 14.2 14.2h20.14a14.18 14.18 0 0 0 14.18-14.2V14.2A14.18 14.18 0 0 0 34.34 0H14.2A14.18 14.18 0 0 0 0 14.18zm24.2 24.2A14.18 14.18 0 0 1 10.04 24.2 14.18 14.18 0 0 1 24.2 10.07a14.18 14.18 0 0 1 14.2 14.18 14.18 14.18 0 0 1-14.2 14.13z" class="cls-1"/><path id="_Group_" d="M29.14 31.85l-1.7-3.94H22.1q-.42.94-.86 2t-.82 1.96h-2.68l7-16.1 7.07 16.1zm-2.56-6.07l-.47-1.13-.38-1-.42-1q-.23-.55-.54-1.36-.43 1.07-.88 2.15t-.93 2.33z" class="cls-2"/></svg>