<svg xmlns="http://www.w3.org/2000/svg" viewBox="0 0 48.48 48.48"><defs><style>.cls-1{fill:url(#linear-gradient);}.cls-2{fill:#a49e35;}</style><linearGradient id="linear-gradient" x1="-1240.62" x2="-1187.55" y1="609" y2="674.94" gradientUnits="userSpaceOnUse"><stop offset="0" stop-color="#cec72b"/><stop offset="1" stop-color="#7a752f"/></linearGradient></defs><g id="_Group_"><path id="_Compound_Path_" d="M0 14.18V34.3a14.18 14.18 0 0 0 14.18 14.2H34.3a14.18 14.18 0 0 0 14.2-14.2V14.2A14.18 14.18 0 0 0 34.3-.02H14.2A14.18 14.18 0 0 0 0 14.18zm24.24 24.24a14.18 14.18 0 0 1-14.18-14.18 14.18 14.18 0 0 1 14.18-14.18 14.18 14.18 0 0 1 14.18 14.18 14.18 14.18 0 0 1-14.18 14.18z" class="cls-1"/><path id="_Group_2" d="M29.6 19.4h-6.82v3.64h5.1v2.13h-5.1v6.7h-2.53V17.28h9.37z" class="cls-2"/></g></svg>