<svg xmlns="http://www.w3.org/2000/svg" width="124.234" height="157.365"><style type="text/css">.st0{fill:none;stroke:#FFFFFF;stroke-width:2;stroke-miterlimit:10;} .st1{fill:none;stroke:#FFFFFF;stroke-miterlimit:10;}</style><path d="M51 2.03s-1.35 10.22 6.44 22.86-.08 28.13-7.6 35.66-17.3 1.08-18.66 2.42c-1.34 1.34-6.8 4.57-9.05 2.33s-10.67-3.93-15.7 3.6-7.87 23.66-2.67 33.87 25.9 25.46 41.5 28.06 32.35-1.8 44.63-11.3 19.9-1.16 19.9-1.16 6.17 8.96-4.05 15.7c-10.2 6.7-27.78 10.2-47.95 4.3-20.17-5.93-32.9-7.72-52.34 11.73M12.9 156.82s7.62-11.74 18.64-12.82c11.03-1.07 20.35 3.23 28.15 5.1s29.38 5.2 50.9-6.26c21.5-11.47 9.5-29.76 7.26-32-2.24-2.24-9.86-12.28-27.97-2.6s-15.42 13.8-37.2 12.64-33.6-15.86-35.77-18.02-5.55-15.32-1.34-19.53c0 0-.73-1.8 4.38 5.46 5.1 7.25 9.86 8.96 9.86 8.96s-7.35 9.94 12.37 13.98c22.66 4.63 44.97-2.5 41.42-11.12-2.33-5.64-21.42-16.4-49.92-5.9 0 0-11.2-8.17-12.9-14.35 0 0 2.6-6.3 4.56-4.3C37.5 88.5 123.5 89.5 123.23 19.5c-.06-16.56-22.76-26.07-41.85-10.48 0 0-4.13 4.3-5.47 8.16s-5.9 4.12-10.48-.45S61.57.06 61.57.06" class="st0"/><path d="M91.24 19.8c0 3.33 2.66 6.02 5.94 6.03 3.33 0 6.06-2.73 6.05-6.06 0-3.3-2.7-5.94-6.03-5.93-3.33 0-5.96 2.64-5.96 5.97zM98.33 34.35c0 2.13 1.74 3.9 3.85 3.9 2.12-.02 3.87-1.77 3.9-3.9 0-2.1-1.77-3.87-3.9-3.87-2.15 0-3.84 1.7-3.85 3.87zM109.37 28.55c1.16 0 2.1-.93 2.1-2.1.03-1.2-.92-2.18-2.13-2.17-1.15 0-2.1.94-2.12 2.1-.02 1.18.96 2.17 2.15 2.17zM95.53 42.38c0-1.16-.9-2.1-2.06-2.14-1.2-.04-2.2.9-2.2 2.1 0 1.2.98 2.18 2.18 2.16 1.16-.02 2.07-.95 2.08-2.12zM89.92 29.6c-1.2-.03-2.2.93-2.2 2.13 0 1.14.92 2.1 2.08 2.13 1.16.04 2.13-.85 2.18-2 .05-1.23-.86-2.23-2.06-2.26zM80.9 68.7c2.35-2.35 2.37-6.13.05-8.46-2.35-2.36-6.2-2.36-8.56 0-2.32 2.34-2.3 6.13.06 8.47 2.37 2.36 6.1 2.35 8.44 0zM86.17 53.4c1.5-1.5 1.52-4 .03-5.47-1.5-1.5-3.98-1.5-5.5 0-1.5 1.47-1.5 3.98 0 5.48 1.53 1.53 3.93 1.53 5.47 0zM74.25 49.7c-.82-.82-2.13-.82-2.97-.02-.87.85-.88 2.2-.02 3.05.82.82 2.14.83 2.98.03.86-.83.86-2.22 0-3.06zM93.83 49.7c-.83.82-.86 2.13-.06 2.97.82.88 2.2.9 3.05.07.85-.84.84-2.23-.02-3.06-.84-.8-2.14-.8-2.97.02zM88.75 62.7c.83.87 2.22.9 3.06.06.83-.8.85-2.13.05-2.98-.8-.85-2.1-.9-2.96-.12-.9.83-.98 2.18-.15 3.05z" class="st1"/></svg>