<svg xmlns="http://www.w3.org/2000/svg" viewBox="0 0 48.48 48.48"><defs><style>.cls-1{fill:url(#linear-gradient);}.cls-2{fill:#b18073;}</style><linearGradient id="linear-gradient" x1="-1385.91" x2="-1323.14" y1="671.68" y2="734.45" gradientUnits="userSpaceOnUse"><stop offset="0" stop-color="#d09d8d"/><stop offset="1" stop-color="#8a5d52"/></linearGradient></defs><path id="_Compound_Path_" d="M0 14.18V34.3a14.18 14.18 0 0 0 14.18 14.2H34.3a14.18 14.18 0 0 0 14.2-14.2V14.2A14.18 14.18 0 0 0 34.3 0H14.2A14.18 14.18 0 0 0 0 14.18zm24.24 24.24a14.18 14.18 0 0 1-14.18-14.18 14.18 14.18 0 0 1 14.17-14.17A14.18 14.18 0 0 1 38.4 24.25a14.18 14.18 0 0 1-14.17 14.17z" class="cls-1"/><path id="_Group_" d="M28.76 21.13a3.37 3.37 0 0 1-.4 1.78 3.33 3.33 0 0 1-1 1 4.63 4.63 0 0 1 .8.5 3.22 3.22 0 0 1 .68.7 3.52 3.52 0 0 1 .48 1 4.3 4.3 0 0 1 .18 1.3 4.2 4.2 0 0 1-.53 2.22 3.9 3.9 0 0 1-1.35 1.35 5.58 5.58 0 0 1-1.8.68 9.7 9.7 0 0 1-1.86.2h-4.44V17.26h4.28a8.3 8.3 0 0 1 1.9.2 5 5 0 0 1 1.6.68 3.3 3.3 0 0 1 1.1 1.2 3.63 3.63 0 0 1 .36 1.78zm-6.7 1.9h1.47a4.8 4.8 0 0 0 1-.1 2.62 2.62 0 0 0 .85-.33 1.75 1.75 0 0 0 .57-.6 1.7 1.7 0 0 0 .2-.87 1.5 1.5 0 0 0-.22-.86 1.65 1.65 0 0 0-.57-.53 2.43 2.43 0 0 0-.8-.26 5.43 5.43 0 0 0-.86-.07H22zm1.73 6.7q3.12 0 3.12-2.4a1.9 1.9 0 0 0-.24-1 2.2 2.2 0 0 0-.6-.68 2.4 2.4 0 0 0-.8-.38 3.2 3.2 0 0 0-.82-.12h-2.4v4.56z" class="cls-2"/></svg>