<svg xmlns="http://www.w3.org/2000/svg" viewBox="0 0 48.48 48.48"><defs><style>.cls-1{fill:url(#linear-gradient);}.cls-2{fill:#374289;}</style><linearGradient id="linear-gradient" x1="-1050.45" x2="-1121.85" y1="463.01" y2="391.62" gradientUnits="userSpaceOnUse"><stop offset="0" stop-color="#2c3177"/><stop offset="1" stop-color="#474c9f"/></linearGradient></defs><g id="_Group_"><path id="_Compound_Path_" d="M0 14.17V34.3a14.18 14.18 0 0 0 14.2 14.18h20.14A14.18 14.18 0 0 0 48.52 34.3V14.17A14.18 14.18 0 0 0 34.34 0H14.2A14.18 14.18 0 0 0 0 14.16zM24.24 38.4a14.18 14.18 0 0 1-14.18-14.17A14.18 14.18 0 0 1 24.2 10.06a14.18 14.18 0 0 1 14.2 14.18A14.18 14.18 0 0 1 24.2 38.4z" class="cls-1"/><path id="_Group_2" d="M27.2 31.85l-5-5.73h-.54v5.73H19.1V17.28h4a8.53 8.53 0 0 1 2.4.3 5.1 5.1 0 0 1 1.75.87 4.05 4.05 0 0 1 1.13 1.5 4.6 4.6 0 0 1 .37 1.84 3.6 3.6 0 0 1-.47 1.93 4.86 4.86 0 0 1-1.23 1.4 4 4 0 0 1-.72.4 6.5 6.5 0 0 1-1.22.37q.58.72 1.3 1.5l1.4 1.55 1.35 1.53q.67.74 1.17 1.36zm-3.4-7.76a2.53 2.53 0 0 0 1.82-.58 2.3 2.3 0 0 0 .63-1.6A3.34 3.34 0 0 0 26 20.7a1.77 1.77 0 0 0-.6-.77 2.47 2.47 0 0 0-1-.38 8.87 8.87 0 0 0-1.3-.13h-1.44v4.68z" class="cls-2"/></g></svg>