<svg xmlns="http://www.w3.org/2000/svg" width="141.605" height="155.131"><style type="text/css">.st0{fill:none;stroke:#FFFFFF;stroke-width:2;stroke-miterlimit:10;}</style><path d="M16.74 143.64s14.86-13.12 22.73-13.12 47.2 35.56 60.33 8.3c9.15-19 11.36-46.77 11.36-46.77s19.68-1.3 24.92-22.73c0 0 2.2-5.68-1.3-9.18L140 21.67s3.5-13.55-6.56-18.8-10.5 2.2-10.5 2.2-.87 3.92 5.03 3.27c0 0 6.77 1.1 5.46 9.4s-5.25 41.1-5.25 41.1-3.48 2.18-3.48 6.55-3.94 9.17-3.94 9.17-5.25 5.68-12.24 5.68-12.68-2.18-16.6-10.5c0 0-1.32-2.6-1.32-5.24 0-2.6-1.3-3.92-2.63-5.23l-5.25-37.6s-2.2-8.3 1.3-11.36 7.88-.87 8.32-4.37c.43-3.5-2.2-4.37-2.2-4.37-6.4-2.9-16.6 7.3-14.85 14.87L81 59.7c-6.72 4.36 1.7 30.8 23.6 32.35 0 0-3.13 35.37-12.67 45.03-13.82 14-45.6-13.62-52.37-13.84-9.8-.32-15.84 6.3-27.63 15.15" class="st0"/><circle cx="9.087" cy="146.044" r="8.087" class="st0"/><circle cx="9.087" cy="146.044" r="3.279" class="st0"/></svg>