<svg xmlns="http://www.w3.org/2000/svg" viewBox="0 0 48.48 48.48"><defs><style>.cls-1{fill:url(#linear-gradient);}.cls-2{fill:#00acd6;}</style><linearGradient id="linear-gradient" x1="-1576.39" x2="-1516.53" y1="419.36" y2="479.22" gradientUnits="userSpaceOnUse"><stop offset="0" stop-color="#059dc0"/><stop offset="1" stop-color="#1bbdef"/></linearGradient></defs><path d="M0 14.18V34.3a14.18 14.18 0 0 0 14.18 14.2H34.3a14.18 14.18 0 0 0 14.2-14.2V14.2A14.18 14.18 0 0 0 34.3 0H14.2A14.18 14.18 0 0 0 0 14.18zm24.24 24.24a14.18 14.18 0 0 1-14.18-14.18 14.18 14.18 0 0 1 14.18-14.18 14.18 14.18 0 0 1 14.18 14.18 14.18 14.18 0 0 1-14.18 14.18z" class="cls-1"/><path d="M29.67 19.4h-6.8v3.64h5.1v2.13h-5.1v6.64h-2.54V17.25h9.37z" class="cls-2"/></svg>