<svg xmlns="http://www.w3.org/2000/svg" width="84.508" height="164.934"><style type="text/css">.st0{fill:none;stroke:#FFFFFF;stroke-width:2;stroke-miterlimit:10;}</style><g id="QNmQmB.tif_1_"><path d="M12.1 1c.75-.03 1.28.4 1.44 1.13.13.58.15 1.2.15 1.8 0 7.37-.02 14.75 0 22.13.02 3.92-1 7.5-3.04 10.87C6 44.63 4 53.23 2.6 62 .67 74.27 1.03 86.6 1.02 98.95c0 11.4 0 22.8 0 34.2 0 2.72.96 4.94 3.47 6.1 2.55 1.17 5.24 1.14 7.67-.46 1.86-1.22 2.63-3.04 2.62-5.33-.06-11.94-.04-23.87-.04-35.8 0-.48-.02-.95 0-1.42.1-1.05.55-1.87 1.7-1.87s1.57.87 1.66 1.9c.05.46.02.93.03 1.4 0 11.67.02 23.34 0 35 0 5.98-.14 11.94-.15 17.9 0 5.08 3.85 8.03 8.78 6.82 2.8-.68 4.54-3 4.54-6.28.03-12.75.02-25.5.02-38.23 0-5.9 0-11.8 0-17.7 0-.67 0-1.35.12-2 .14-.82.65-1.3 1.53-1.33.95-.02 1.5.52 1.67 1.4.1.52.07 1.07.07 1.6 0 18.7 0 37.42 0 56.14 0 2.07-.12 4.15-.1 6.23.05 4.18 2.55 6.7 6.6 6.73 4.14.02 6.83-2.56 6.83-6.74-.02-15.03-.1-30.05-.14-45.07-.02-5.63 0-11.27 0-16.9 0-.53 0-1.08.12-1.6.18-.8.72-1.28 1.57-1.3.86 0 1.37.57 1.56 1.33.14.57.08 1.2.08 1.8 0 17.7 0 35.4 0 53.12 0 4.23 2.37 6.8 6.37 6.86 4.2.07 6.94-2.6 6.94-6.87.02-20.32 0-40.64 0-60.96 0-.87.03-1.74 0-2.6-.03-1.18.14-2.32 1.6-2.28 1.4.03 1.55 1.2 1.55 2.34 0 10.66.03 21.33-.02 32-.02 3.6.56 7.06 1.72 10.44.37 1.07.83 2.14 1.4 3.1.77 1.37 1.75 2.84 3.54 2.46 1.84-.4 1.36-2.26 1.5-3.54.4-4.24 1.3-8.4 3.13-12.2 2.9-5.97 4.2-12.2 4.35-18.8.2-8.4.43-16.76-.96-25.07-.52-3.02-1.84-5.73-3.17-8.44-3.02-6.12-6.62-11.94-10-17.88-.76-1.34-1.46-2.72-2.27-4.02-3.13-5.04-4.54-10.43-4.3-16.43.3-7.63.17-15.3.22-22.93 0-.4.02-.8.05-1.2" class="st0"/><path d="M26.28 38.26c0 6.03 4.83 10.92 10.8 10.93 6.05 0 11-4.96 10.98-11-.02-5.98-4.92-10.8-10.95-10.8-6.04.03-10.82 4.8-10.82 10.86zM39.16 64.66c-.02 3.87 3.17 7.1 7 7.07 3.84-.02 7.02-3.2 7.05-7.05.04-3.82-3.2-7.05-7.03-7.04-3.9 0-7 3.1-7 7.02zM59.2 54.12c2.12 0 3.8-1.68 3.85-3.8.04-2.2-1.7-3.96-3.88-3.94-2.1 0-3.82 1.7-3.86 3.8-.03 2.15 1.75 3.95 3.9 3.94zM34.08 79.25c0-2.12-1.63-3.83-3.74-3.9-2.18-.06-4 1.67-4 3.85-.02 2.15 1.78 3.93 3.95 3.9 2.1-.04 3.77-1.74 3.78-3.85zM23.9 56.04c-2.17-.06-4 1.7-4 3.86-.02 2.08 1.66 3.8 3.77 3.87 2.1.06 3.87-1.55 3.96-3.65.1-2.22-1.55-4.03-3.73-4.08z" class="st0"/></g></svg>