<svg xmlns="http://www.w3.org/2000/svg" viewBox="0 0 48.48 48.48"><defs><style>.cls-1{fill:url(#radial-gradient);}.cls-2{fill:#75c9cf;}</style><radialGradient id="radial-gradient" cx="-1094.56" cy="695.9" r="27.25" gradientUnits="userSpaceOnUse"><stop offset="0" stop-color="#a7dce2"/><stop offset="1" stop-color="#6fc7ce"/></radialGradient></defs><g id="_Group_"><path id="_Compound_Path_" d="M0 14.18V34.3a14.18 14.18 0 0 0 14.2 14.2h20.14a14.18 14.18 0 0 0 14.18-14.2V14.2A14.18 14.18 0 0 0 34.34 0H14.2A14.18 14.18 0 0 0 0 14.18zm24.24 24.24a14.18 14.18 0 0 1-14.18-14.18A14.18 14.18 0 0 1 24.2 10.06a14.18 14.18 0 0 1 14.2 14.18 14.18 14.18 0 0 1-14.2 14.18z" class="cls-1"/><path id="_Group_2" d="M30.4 31.85h-9.9V17.28h9.4v2.13h-6.83v3.66h5.6v2.13h-5.6v4.55h7.36z" class="cls-2"/></g></svg>