<svg xmlns="http://www.w3.org/2000/svg" viewBox="0 0 48.77 48.77"><defs><style>.cls-1{fill:url(#linear-gradient);}.cls-2{fill:#6d8739;}</style><linearGradient id="linear-gradient" x1="-1250.65" x2="-1194.05" y1="813.3" y2="869.9" gradientUnits="userSpaceOnUse"><stop offset="0" stop-color="#859d3f"/><stop offset="1" stop-color="#5b7e39"/></linearGradient></defs><g id="_Group_"><path id="_Compound_Path_" d="M0 14.26V34.5a14.26 14.26 0 0 0 14.26 14.27H34.5A14.26 14.26 0 0 0 48.73 34.5V14.27A14.26 14.26 0 0 0 34.46 0H14.2A14.26 14.26 0 0 0 0 14.26zm24.4 24.4a14.26 14.26 0 0 1-14.27-14.27A14.26 14.26 0 0 1 24.4 10.12 14.26 14.26 0 0 1 38.64 24.4a14.26 14.26 0 0 1-14.27 14.24z" class="cls-1"/><path id="_Group_2" d="M29.07 21.25a3.4 3.4 0 0 1-.4 1.8 3.35 3.35 0 0 1-1 1 4.65 4.65 0 0 1 .8.47 3.24 3.24 0 0 1 .68.7 3.55 3.55 0 0 1 .48 1 4.32 4.32 0 0 1 .18 1.32 4.24 4.24 0 0 1-.52 2.23 3.93 3.93 0 0 1-1.36 1.36 5.64 5.64 0 0 1-1.8.68 9.75 9.75 0 0 1-1.88.2h-4.52V17.34h4.3a8.3 8.3 0 0 1 1.92.22 5 5 0 0 1 1.6.67 3.33 3.33 0 0 1 1.12 1.2 3.65 3.65 0 0 1 .4 1.82zm-6.75 1.92h1.5a4.86 4.86 0 0 0 1-.1 2.64 2.64 0 0 0 .84-.35 1.76 1.76 0 0 0 .58-.6 1.7 1.7 0 0 0 .22-.88 1.52 1.52 0 0 0-.23-.87 1.66 1.66 0 0 0-.58-.53 2.44 2.44 0 0 0-.8-.26 5.5 5.5 0 0 0-.87-.07h-1.7zm1.75 6.73q3.15 0 3.15-2.43a1.92 1.92 0 0 0-.24-1 2.22 2.22 0 0 0-.6-.67 2.44 2.44 0 0 0-.8-.38 3.2 3.2 0 0 0-.84-.12H22.3v4.6z" class="cls-2"/></g></svg>