<svg xmlns="http://www.w3.org/2000/svg" viewBox="0 0 48.48 48.48"><defs><style>.cls-1{fill:url(#linear-gradient);}.cls-2{fill:#8b3783;}</style><linearGradient id="linear-gradient" x1="-1118.1" x2="-1061.82" y1="534.38" y2="590.65" gradientUnits="userSpaceOnUse"><stop offset="0" stop-color="#a14e9c"/><stop offset="1" stop-color="#772773"/></linearGradient></defs><g id="_Group_"><path id="_Compound_Path_" d="M0 14.18V34.3A14.18 14.18 0 0 0 14.2 48.5h20.14A14.18 14.18 0 0 0 48.52 34.3V14.18A14.18 14.18 0 0 0 34.34 0H14.2A14.18 14.18 0 0 0 0 14.18zm24.24 24.24a14.18 14.18 0 0 1-14.18-14.18A14.18 14.18 0 0 1 24.2 10.06a14.18 14.18 0 0 1 14.2 14.18 14.18 14.18 0 0 1-14.2 14.18z" class="cls-1"/><path id="_Group_2" d="M28.94 18.44a4 4 0 0 1 1.1 1.48 4.67 4.67 0 0 1 .38 1.86 3.5 3.5 0 0 1-.48 1.9 5 5 0 0 1-1.24 1.42 5.23 5.23 0 0 1-.5.35 3.48 3.48 0 0 1-.8.32 7.9 7.9 0 0 1-1.15.24 11.83 11.83 0 0 1-1.6.1h-1.66v5.74h-2.57V17.27h4.32a8.6 8.6 0 0 1 2.45.3 5.13 5.13 0 0 1 1.73.87zm-1.77 5a2 2 0 0 0 .72-1.58 2.52 2.52 0 0 0-.6-1.77 3.23 3.23 0 0 0-1-.5 5.43 5.43 0 0 0-1.53-.18h-1.74v4.56h2.44a3.3 3.3 0 0 0 .9-.13 2.55 2.55 0 0 0 .84-.44z" class="cls-2"/></g></svg>