<svg xmlns="http://www.w3.org/2000/svg" viewBox="0 0 48.48 48.48"><defs><style>.cls-1{fill:url(#linear-gradient);}.cls-2{fill:#d6802a;}</style><linearGradient id="linear-gradient" x1="-1372.08" x2="-1297.91" y1="755.3" y2="829.48" gradientUnits="userSpaceOnUse"><stop offset="0" stop-color="#f09623"/><stop offset="1" stop-color="#b86a29"/></linearGradient></defs><g id="_Group_"><path id="_Compound_Path_" d="M0 14.18V34.3a14.18 14.18 0 0 0 14.18 14.2H34.3a14.18 14.18 0 0 0 14.2-14.2V14.2A14.18 14.18 0 0 0 34.3 0H14.2A14.18 14.18 0 0 0 0 14.18zm24.24 24.24a14.18 14.18 0 0 1-14.18-14.18 14.18 14.18 0 0 1 14.17-14.18A14.18 14.18 0 0 1 38.4 24.24a14.18 14.18 0 0 1-14.17 14.18z" class="cls-1"/><path id="_Group_2" d="M30.14 17.28v9.8a5.8 5.8 0 0 1-.4 2.22 4.07 4.07 0 0 1-1.1 1.58 4.83 4.83 0 0 1-1.75.93 7.7 7.7 0 0 1-2.27.32 7.86 7.86 0 0 1-2.26-.3 5.05 5.05 0 0 1-1.8-.94 4.4 4.4 0 0 1-1.18-1.58 5.24 5.24 0 0 1-.45-2.22v-9.8h2.6v9.9a2.7 2.7 0 0 0 .26 1.2 2.73 2.73 0 0 0 .7.9 2.94 2.94 0 0 0 1 .53 3.65 3.65 0 0 0 1.15.2 3.77 3.77 0 0 0 1.13-.18 2.62 2.62 0 0 0 .93-.5 2.3 2.3 0 0 0 .63-.87 3.28 3.28 0 0 0 .23-1.28v-9.9z" class="cls-2"/></g></svg>