<svg xmlns="http://www.w3.org/2000/svg" viewBox="0 0 48.48 48.48"><defs><style>.cls-1{fill:url(#linear-gradient);}.cls-2{fill:#269748;}</style><linearGradient id="linear-gradient" x1="-1117.04" x2="-1057.18" y1="744.62" y2="804.48" gradientUnits="userSpaceOnUse"><stop offset="0" stop-color="#46ae49"/><stop offset="1" stop-color="#138041"/></linearGradient></defs><g id="_Group_"><path id="_Compound_Path_" d="M0 14.18V34.3A14.18 14.18 0 0 0 14.2 48.5h20.14A14.18 14.18 0 0 0 48.52 34.3V14.18A14.18 14.18 0 0 0 34.34 0H14.2A14.18 14.18 0 0 0 0 14.18zm24.24 24.24a14.18 14.18 0 0 1-14.18-14.18A14.18 14.18 0 0 1 24.2 10.06a14.18 14.18 0 0 1 14.2 14.18 14.18 14.18 0 0 1-14.2 14.18z" class="cls-1"/><path id="_Group_2" d="M29.5 31.85h-9.8V17.28h2.57v12.45h7.26z" class="cls-2"/></g></svg>