<svg xmlns="http://www.w3.org/2000/svg" viewBox="0 0 48.48 48.48"><defs><style>.cls-1{fill:url(#radial-gradient);}.cls-2{fill:#0f8090;}</style><radialGradient id="radial-gradient" cx="-1103.73" cy="610.82" r="71.44" gradientUnits="userSpaceOnUse"><stop offset="0" stop-color="#3f5a7d"/><stop offset="0" stop-color="#0094ac"/><stop offset="1" stop-color="#1f6772"/></radialGradient></defs><g id="_Group_"><path id="_Compound_Path_" d="M0 14.18V34.3a14.18 14.18 0 0 0 14.2 14.2h20.14A14.18 14.18 0 0 0 48.5 34.3V14.2A14.18 14.18 0 0 0 34.3 0H14.2A14.18 14.18 0 0 0 0 14.18zm35.78 18.3a14.16 14.16 0 0 1-11.54 5.94 14.18 14.18 0 0 1-14.18-14.18A14.18 14.18 0 0 1 24.2 10.07a14.18 14.18 0 0 1 14.2 14.18 14.1 14.1 0 0 1-2.65 8.23" class="cls-1"/><path id="_Group_2" d="M30.56 31.85h-2.58v-6.7H21.4v6.7H18.9V17.28h2.56v5.76H28V17.3h2.6z" class="cls-2"/></g></svg>