<svg xmlns="http://www.w3.org/2000/svg" viewBox="0 0 48.48 48.48"><defs><style>.cls-1{fill:url(#linear-gradient);}.cls-2{fill:#b42128;}</style><linearGradient id="linear-gradient" x1="-1382.06" x2="-1322.2" y1="535.93" y2="595.79" gradientUnits="userSpaceOnUse"><stop offset="0" stop-color="#d22329"/><stop offset="1" stop-color="#921e1f"/></linearGradient></defs><g id="_Group_"><path id="_Compound_Path_" d="M0 14.18V34.3a14.18 14.18 0 0 0 14.18 14.2H34.3a14.18 14.18 0 0 0 14.2-14.2V14.2A14.18 14.18 0 0 0 34.3 0H14.2A14.18 14.18 0 0 0 0 14.18zm24.24 24.24a14.18 14.18 0 0 1-14.18-14.18 14.18 14.18 0 0 1 14.17-14.17A14.18 14.18 0 0 1 38.4 24.24a14.18 14.18 0 0 1-14.17 14.18z" class="cls-1"/><path id="_Group_2" d="M28.5 31.85l-5-5.73h-.55v5.73H20.4V17.28h4a8.53 8.53 0 0 1 2.4.3 5.1 5.1 0 0 1 1.74.87 4.05 4.05 0 0 1 1.13 1.5 4.6 4.6 0 0 1 .37 1.84 3.6 3.6 0 0 1-.47 1.93 4.88 4.88 0 0 1-1.23 1.4 4.1 4.1 0 0 1-.72.4 6.48 6.48 0 0 1-1.22.37q.57.72 1.28 1.5l1.4 1.55 1.36 1.53q.67.74 1.17 1.36zm-3.42-7.76a2.52 2.52 0 0 0 1.83-.58 2.3 2.3 0 0 0 .64-1.6 3.36 3.36 0 0 0-.24-1.23 1.78 1.78 0 0 0-.6-.77 2.47 2.47 0 0 0-1-.38 8.85 8.85 0 0 0-1.32-.13h-1.43v4.68z" class="cls-2"/></g></svg>