<svg xmlns="http://www.w3.org/2000/svg" viewBox="0 0 48.48 48.48"><defs><style>.cls-1{fill:url(#radial-gradient);}.cls-2{fill:#02825f;}</style><radialGradient id="radial-gradient" cx="-1237" cy="475.93" r="45.05" gradientUnits="userSpaceOnUse"><stop offset="0" stop-color="#3f5a7d"/><stop offset="0" stop-color="#039047"/><stop offset="1" stop-color="#46833e"/></radialGradient></defs><g id="_Group_"><path id="_Compound_Path_" d="M0 14.18V34.3a14.18 14.18 0 0 0 14.18 14.2H34.3a14.18 14.18 0 0 0 14.2-14.2V14.2A14.18 14.18 0 0 0 34.3 0H14.2A14.18 14.18 0 0 0 0 14.18zm24.24 24.24a14.18 14.18 0 0 1-14.18-14.18 14.18 14.18 0 0 1 14.18-14.18 14.18 14.18 0 0 1 14.18 14.18 14.18 14.18 0 0 1-14.18 14.18z" class="cls-1"/><path id="_Group_2" d="M30.56 31.86h-2.58v-6.7H21.4v6.7H18.9V17.3h2.56v5.75H28V17.3h2.6z" class="cls-2"/></g></svg>